<?xml version="1.0" standalone="no"?>
<!DOCTYPE svg PUBLIC "-//W3C//DTD SVG 20010904//EN"
 "http://www.w3.org/TR/2001/REC-SVG-20010904/DTD/svg10.dtd">
<svg version="1.0" xmlns="http://www.w3.org/2000/svg"
 width="1024.000000pt" height="576.000000pt" viewBox="0 0 1024.000000 576.000000"
 preserveAspectRatio="xMidYMid meet">

<g transform="translate(0.000000,576.000000) scale(0.100000,-0.100000)"
fill="#000000" stroke="none">
<path d="M5885 4879 c-959 -72 -1698 -330 -2335 -818 -141 -107 -250 -205
-256 -227 -3 -12 -4 -370 -1 -795 4 -851 5 -857 68 -1064 69 -225 177 -404
335 -560 92 -91 202 -169 383 -273 249 -143 1072 -542 1119 -542 55 0 929 425
1167 568 207 124 290 190 411 327 146 165 240 358 295 605 l24 105 3 1322 2
1322 -42 5 c-207 28 -937 43 -1173 25z m-452 -1138 c238 -61 393 -242 462
-539 53 -227 33 -556 -46 -768 -106 -284 -328 -440 -598 -420 -47 3 -94 7
-104 8 -17 3 -18 -18 -17 -374 l0 -378 -180 0 -180 0 -1 1165 c-1 641 -2 1173
-3 1183 -2 31 178 111 297 131 101 17 288 13 370 -8z m1301 -12 c39 -12 90
-37 115 -54 l46 -30 3 -147 c1 -82 -1 -148 -6 -148 -4 0 -31 18 -60 39 -71 54
-151 83 -243 89 -67 4 -84 1 -132 -21 -68 -31 -97 -78 -97 -157 0 -99 43 -146
234 -260 262 -156 356 -294 356 -520 0 -201 -90 -364 -248 -448 -166 -89 -390
-86 -600 8 l-72 33 0 163 0 164 68 -44 c140 -91 294 -117 394 -68 71 35 92 71
96 162 6 128 -27 167 -269 320 -194 123 -278 233 -300 396 -36 257 102 464
361 540 73 22 269 12 354 -17z m-2894 -11 c0 -7 1 -290 2 -628 l3 -615 30 -60
c41 -83 90 -109 191 -102 38 3 87 12 107 21 l37 15 0 675 c0 371 3 681 6 690
5 14 31 16 180 16 l174 0 -2 -792 -3 -792 -49 -29 c-63 -36 -201 -83 -289 -97
-101 -16 -311 -13 -380 5 -215 56 -331 210 -357 470 -15 157 -13 1222 3 1228
6 3 87 6 180 6 127 1 167 -2 167 -11z"/>
<path d="M5155 3461 c-20 -8 -20 -20 -25 -565 -3 -307 -2 -562 1 -567 10 -16
112 -27 168 -18 127 20 202 125 242 339 20 101 16 416 -5 525 -32 164 -91 255
-185 283 -43 13 -165 15 -196 3z"/>
</g>
</svg>
