<?xml version="1.0" standalone="no"?>
<!DOCTYPE svg PUBLIC "-//W3C//DTD SVG 20010904//EN"
 "http://www.w3.org/TR/2001/REC-SVG-20010904/DTD/svg10.dtd">
<svg version="1.0" xmlns="http://www.w3.org/2000/svg"
 width="1494.000000pt" height="877.000000pt" viewBox="0 0 1494.000000 877.000000"
 preserveAspectRatio="xMidYMid meet">

<g transform="translate(0.000000,877.000000) scale(0.100000,-0.100000)"
fill="#000000" stroke="none">
<path d="M2824 6555 c-4 -9 27 -50 86 -114 183 -198 210 -251 217 -426 l5
-110 -465 -1858 -465 -1857 671 2 670 3 52 220 c29 121 72 300 95 398 l42 177
647 0 646 0 100 -401 100 -400 1135 4 c1218 4 1206 3 1472 57 204 42 407 125
528 218 66 50 168 152 207 207 12 16 23 28 25 25 2 -3 24 -36 47 -73 153 -238
414 -383 803 -444 150 -23 564 -23 713 0 276 43 486 158 611 332 l20 29 32
-102 c28 -86 40 -109 82 -155 31 -34 70 -63 102 -78 l53 -24 695 -3 c382 -2
710 0 728 3 17 3 32 11 32 18 0 7 -50 66 -111 132 -123 134 -170 199 -202 283
l-22 57 -3 1948 -2 1947 -720 0 -720 0 0 -1543 c0 -1332 -2 -1550 -15 -1593
-47 -159 -220 -268 -425 -268 -145 0 -247 46 -312 139 -61 88 -58 12 -58 1713
l0 1553 -1362 -4 c-945 -3 -1398 -8 -1478 -16 -672 -69 -1045 -260 -1241 -636
l-52 -99 -68 264 c-37 146 -73 282 -79 304 -16 52 -89 129 -153 157 l-52 24
-1303 3 c-1148 2 -1303 1 -1308 -13z m5756 -304 c0 -11 -83 -189 -185 -397
-102 -207 -184 -379 -182 -380 2 -2 156 129 342 291 186 163 343 294 349 292
5 -2 14 -10 20 -19 8 -13 -40 -83 -252 -364 -144 -191 -260 -349 -258 -351 2
-3 176 100 386 227 210 128 389 233 398 234 10 0 18 -8 20 -21 3 -17 -63 -83
-317 -319 -176 -164 -319 -300 -316 -302 2 -3 196 73 431 168 383 154 428 170
442 156 12 -12 13 -18 3 -30 -7 -8 -177 -122 -377 -252 -200 -130 -364 -240
-364 -245 0 -4 26 -1 58 6 406 94 829 185 846 183 13 -2 21 -10 21 -22 0 -15
-81 -54 -415 -199 -228 -100 -417 -182 -419 -184 -18 -13 64 -11 465 16 253
16 463 26 467 21 5 -4 7 -16 5 -26 -2 -14 -83 -38 -438 -129 -487 -125 -471
-120 -450 -128 8 -3 217 -24 464 -46 246 -23 452 -44 457 -47 5 -3 9 -14 9
-24 0 -23 19 -21 -475 -65 -452 -41 -479 -44 -450 -56 11 -5 198 -54 415 -109
217 -56 412 -106 433 -111 30 -8 37 -14 37 -34 0 -19 -5 -25 -22 -25 -13 0
-223 14 -468 30 -245 16 -447 27 -449 24 -2 -2 -2 -6 0 -8 2 -2 186 -84 409
-181 223 -97 412 -183 420 -191 12 -12 12 -16 0 -29 -13 -12 -68 -2 -442 82
l-426 96 -17 66 c-20 81 -92 236 -142 305 -94 131 -203 235 -348 330 -173 113
-281 164 -700 328 -417 163 -558 236 -643 333 -106 120 -109 289 -8 402 94
105 239 148 501 148 187 0 290 -17 468 -77 49 -16 94 -27 101 -25 6 3 133 156
281 340 208 259 275 336 293 337 15 0 22 -6 22 -19z m-2954 -537 l126 -77 -7
-45 c-14 -93 -9 -94 -148 34 -115 106 -140 138 -120 157 12 13 24 7 149 -69z
m-1023 -1022 c119 -482 217 -883 217 -889 0 -19 -880 -19 -880 0 0 21 434
1767 440 1767 3 0 103 -395 223 -878z m887 694 l225 -92 5 -91 c3 -59 1 -89
-5 -86 -5 3 -117 75 -247 160 -226 147 -255 172 -231 196 11 12 22 8 253 -87z
m-66 -329 l319 -72 32 -96 c18 -52 38 -105 44 -117 6 -12 8 -22 4 -21 -4 0
-179 76 -388 167 -325 143 -380 170 -383 190 -3 18 1 22 25 22 15 -1 172 -33
347 -73z m-29 -317 c176 -11 350 -23 387 -26 l68 -6 47 -72 c66 -99 201 -230
319 -309 181 -120 349 -195 784 -347 372 -131 510 -198 611 -299 64 -65 96
-125 109 -209 31 -192 -99 -339 -358 -404 -71 -18 -116 -22 -242 -22 -165 0
-229 11 -351 60 -33 14 -64 22 -70 19 -5 -4 -129 -155 -275 -336 -260 -323
-294 -357 -310 -316 -3 8 79 183 182 390 103 208 185 380 181 383 -3 3 -154
-124 -336 -283 -182 -158 -339 -288 -349 -288 -47 0 -18 47 232 380 140 187
251 341 247 343 -4 1 -179 -101 -387 -228 -208 -127 -386 -229 -394 -228 -8 2
-16 12 -18 23 -2 15 80 96 317 315 175 162 317 298 315 301 -2 3 -193 -70
-425 -163 -232 -93 -428 -167 -435 -164 -45 17 -8 46 362 287 207 134 370 245
362 247 -7 1 -213 -43 -458 -98 -259 -58 -448 -96 -453 -91 -28 28 6 47 407
222 225 98 411 181 414 184 3 3 3 7 1 9 -2 2 -209 -9 -459 -25 -250 -16 -460
-27 -467 -25 -19 8 -16 34 5 44 9 5 206 58 437 116 470 120 450 114 442 123
-4 3 -212 25 -463 48 -251 24 -461 48 -466 53 -20 20 0 39 49 44 26 4 235 23
463 44 228 21 417 39 419 41 2 2 2 5 -1 8 -3 3 -198 55 -433 115 -508 130
-465 117 -465 139 0 29 11 32 75 26 33 -3 204 -14 380 -25z m3730 -1223 c176
-114 326 -214 333 -221 14 -14 6 -46 -12 -46 -14 0 -639 249 -647 258 -4 4 -9
58 -12 120 -4 85 -3 111 6 105 7 -4 156 -101 332 -216z m-92 -356 c108 -101
197 -184 197 -186 0 -16 -15 -35 -27 -35 -8 0 -109 57 -224 128 l-210 127 6
75 c4 41 9 83 12 93 6 22 -23 46 246 -202z m-204 -316 c55 -74 101 -141 101
-149 0 -17 -27 -29 -43 -19 -7 4 -57 46 -113 95 l-101 88 21 60 c12 33 24 60
27 60 4 0 52 -61 108 -135z"/>
<path d="M12455 6548 c-73 -43 -107 -125 -86 -206 24 -88 97 -137 193 -130
172 13 228 226 85 332 -43 31 -140 34 -192 4z m188 -31 c127 -97 50 -296 -109
-284 -90 6 -147 68 -148 159 0 57 36 116 85 142 49 25 128 17 172 -17z"/>
<path d="M12480 6390 c0 -93 1 -100 20 -100 17 0 20 7 20 40 0 29 4 40 15 40
8 0 24 -18 35 -40 13 -26 27 -40 40 -40 25 0 25 1 -1 44 l-20 35 20 20 c25 25
27 49 5 79 -13 19 -24 22 -75 22 l-59 0 0 -100z m100 55 c19 -23 4 -45 -30
-45 -27 0 -30 3 -30 30 0 25 4 30 24 30 13 0 29 -7 36 -15z"/>
</g>
</svg>
