<?xml version="1.0" standalone="no"?>
<!DOCTYPE svg PUBLIC "-//W3C//DTD SVG 20010904//EN"
 "http://www.w3.org/TR/2001/REC-SVG-20010904/DTD/svg10.dtd">
<svg version="1.0" xmlns="http://www.w3.org/2000/svg"
 width="600.000000pt" height="600.000000pt" viewBox="0 0 600.000000 600.000000"
 preserveAspectRatio="xMidYMid meet">

<g transform="translate(0.000000,600.000000) scale(0.100000,-0.100000)"
fill="#000000" stroke="none">
<path d="M3199 5086 c-2 -2 -60 -14 -129 -26 -240 -42 -470 -134 -665 -265
-123 -82 -285 -219 -285 -241 0 -12 77 -14 502 -13 l501 0 22 -23 c107 -112
231 -246 283 -306 l62 -73 0 -148 c0 -114 -3 -151 -14 -160 -9 -8 -69 -11
-192 -9 l-179 3 -3 45 c-2 32 -11 54 -31 75 -15 17 -44 52 -66 78 -75 95 -36
87 -414 87 l-336 0 -82 -93 -83 -92 0 -301 0 -300 85 -83 84 -83 53 4 53 4 3
192 2 191 -52 3 -53 3 -3 177 c-2 177 -2 178 20 183 13 3 158 4 323 3 l300 -3
3 -165 c3 -204 2 -210 -43 -210 l-35 0 0 -189 0 -188 60 0 61 1 74 84 c73 83
75 86 75 137 0 39 4 54 16 59 27 10 344 7 364 -4 18 -10 19 -24 19 -187 l0
-177 -177 -178 -176 -178 -158 0 -158 0 0 -44 c0 -39 4 -47 33 -65 17 -11 46
-30 62 -41 28 -19 47 -20 323 -20 l292 0 53 36 c28 20 57 42 62 49 6 8 9 175
7 468 l-2 457 -28 0 c-15 0 -33 5 -40 12 -15 15 -17 284 -2 322 l10 26 300 0
300 0 5 -22 c3 -13 4 -97 3 -188 l-3 -165 -42 -3 -43 -3 0 -539 0 -538 -86
-79 c-48 -43 -126 -115 -175 -160 -49 -45 -99 -89 -112 -98 -20 -13 -71 -17
-276 -22 l-252 -6 -39 -31 c-79 -64 -165 -186 -176 -251 -3 -22 -12 -63 -19
-90 -21 -81 -30 -315 -14 -359 10 -27 17 -35 30 -31 40 13 139 25 204 25 39 0
110 5 160 10 110 13 151 35 257 139 47 47 126 108 208 161 72 47 177 115 233
151 118 76 182 132 278 241 l69 78 30 -28 c17 -15 45 -56 63 -91 21 -41 43
-69 62 -80 17 -9 32 -19 33 -23 11 -25 94 10 215 91 52 34 77 44 103 43 18 -2
41 4 51 12 10 8 52 43 93 77 196 161 667 655 707 740 105 229 110 559 11 814
-58 152 -126 252 -233 347 -191 170 -423 258 -759 288 -70 6 -103 13 -110 23
-6 8 -40 57 -76 107 -286 408 -723 629 -1246 630 -83 0 -153 -2 -155 -4z
m2091 -1379 c0 -7 -25 -40 -55 -73 -63 -67 -109 -140 -148 -234 -34 -82 -72
-219 -82 -290 -9 -70 -31 -108 -74 -126 -72 -30 -145 -11 -200 51 -33 38 -33
39 -27 109 12 133 57 216 183 337 138 135 403 283 403 226z"/>
<path d="M1525 4094 c-100 -24 -250 -93 -317 -145 -35 -27 -81 -61 -102 -76
-22 -16 -57 -45 -78 -65 l-40 -37 -146 -4 c-89 -3 -158 -10 -175 -18 l-27 -12
21 -23 c12 -12 47 -33 78 -45 78 -32 130 -68 137 -95 6 -22 -3 -85 -37 -294
-12 -67 -8 -303 5 -331 5 -11 -5 -24 -36 -45 -205 -137 -282 -225 -291 -330
-15 -173 -38 -232 -160 -416 -44 -68 -89 -147 -99 -176 -9 -29 -26 -66 -37
-81 -46 -65 -61 -118 -61 -219 1 -72 5 -105 18 -129 45 -83 137 -228 201 -315
38 -54 75 -107 81 -118 6 -11 15 -20 21 -20 12 0 109 97 168 168 32 40 59 60
103 79 58 26 60 28 103 112 50 101 85 256 85 385 1 102 21 216 50 284 21 48
79 106 147 145 6 4 42 -8 78 -28 37 -19 73 -35 81 -35 8 0 31 -8 52 -19 66
-33 135 -53 222 -62 47 -4 114 -13 150 -18 84 -14 249 -14 319 -1 31 6 90 17
131 24 41 8 109 24 150 36 79 23 214 83 224 99 11 17 -9 49 -54 85 -25 21 -62
51 -82 69 l-38 32 0 132 0 133 -149 0 -149 0 -69 63 c-37 34 -86 78 -107 97
-22 19 -67 60 -100 91 -34 31 -82 74 -108 95 l-47 39 0 469 c-1 483 -5 537
-41 535 -8 0 -42 -7 -75 -15z"/>
<path d="M3652 1390 c-47 -29 -76 -97 -63 -147 21 -77 106 -126 176 -103 64
21 102 81 96 149 -9 98 -124 153 -209 101z m138 -16 c68 -41 78 -130 21 -188
-28 -27 -38 -31 -87 -31 -51 0 -58 3 -90 37 -38 43 -45 88 -19 138 29 56 117
78 175 44z"/>
<path d="M3670 1264 c0 -50 3 -73 11 -69 5 4 9 19 7 33 -2 19 2 28 14 30 16 3
30 -9 62 -53 8 -11 17 -17 21 -13 4 4 -2 20 -14 36 -18 26 -19 31 -6 42 18 15
19 42 3 58 -7 7 -31 12 -55 12 l-43 0 0 -76z m87 40 c8 -20 -11 -32 -43 -26
-15 3 -24 11 -24 23 0 25 58 27 67 3z"/>
</g>
</svg>
